<svg xmlns="http://www.w3.org/2000/svg" width="30.771" height="27" viewBox="0 0 30.771 27">
  <g id="noun_company_3848961" transform="translate(-3 -2.97)">
    <g id="Group_3043" data-name="Group 3043" transform="translate(3 2.97)">
      <path id="Path_9772" data-name="Path 9772" d="M32.962,28.551H30.532V9.4a.7.7,0,0,0-.551-.709L22.435,6.517V3.679a.765.765,0,0,0-.81-.709H7.049a.765.765,0,0,0-.81.709V28.551H3.81a.716.716,0,1,0,0,1.419H32.962a.716.716,0,1,0,0-1.419ZM28.913,9.908V28.551H22.435V8.007ZM13.527,28.551V25.714h1.62v2.838Zm2.429-4.256H12.717a.765.765,0,0,0-.81.709v3.547H7.859V4.431H20.815v24.12H16.766v-3.59A.772.772,0,0,0,15.956,24.295Zm-2.462-3.547a.76.76,0,0,1-.777.709H11.1a.716.716,0,1,1,0-1.419h1.62A.76.76,0,0,1,13.495,20.748Zm4.178.709H15.956a.716.716,0,1,1,0-1.419h1.62a.716.716,0,1,1,0,1.419Zm-4.178-4.966a.76.76,0,0,1-.777.709H11.1a.716.716,0,1,1,0-1.419h1.62A.76.76,0,0,1,13.495,16.491Zm1.62,0a.67.67,0,0,1,.249-.512.877.877,0,0,1,.594-.2h1.62a.716.716,0,1,1,0,1.419h-1.62a.76.76,0,0,1-.777-.709Zm-1.62-4.256a.76.76,0,0,1-.777.709H11.1a.716.716,0,1,1,0-1.419h1.62A.76.76,0,0,1,13.495,12.235Zm1.62,0a.67.67,0,0,1,.249-.512.877.877,0,0,1,.594-.2h1.62a.716.716,0,1,1,0,1.419h-1.62a.76.76,0,0,1-.777-.709Zm-1.62-4.256a.76.76,0,0,1-.777.709H11.1a.765.765,0,0,1-.81-.709.765.765,0,0,1,.81-.709h1.62A.76.76,0,0,1,13.495,7.978Zm1.62,0a.67.67,0,0,1,.249-.512.877.877,0,0,1,.594-.2h1.62a.765.765,0,0,1,.81.709.765.765,0,0,1-.81.709h-1.62a.76.76,0,0,1-.777-.709ZM27.228,25a.765.765,0,0,1-.81.709H24.8a.716.716,0,1,1,0-1.419h1.62a.886.886,0,0,1,.6.172.681.681,0,0,1,.277.495Zm-3.239-4.256a.78.78,0,0,1,.81-.709h1.62a.78.78,0,0,1,.81.709.765.765,0,0,1-.81.709H24.8a.75.75,0,0,1-.745-.738Zm0-4.256a.765.765,0,0,1,.81-.709h1.62a.716.716,0,1,1,0,1.419H24.8a.755.755,0,0,1-.745-.709Zm0-4.256a.765.765,0,0,1,.81-.709h1.62a.765.765,0,0,1,.81.709.78.78,0,0,1-.81.709H24.8a.775.775,0,0,1-.745-.681Z" transform="translate(-3 -2.97)"/>
    </g>
  </g>
</svg>
