<svg xmlns="http://www.w3.org/2000/svg" width="30.82" height="28.107" viewBox="0 0 30.82 28.107">
  <g id="noun_Home_2814410" transform="translate(-2.998 -2.898)">
    <g id="Layer_3" data-name="Layer 3" transform="translate(3.528 3.505)">
      <path id="Path_9739" data-name="Path 9739" d="M32.806,13.866,20.08,4.073a2.762,2.762,0,0,0-3.354,0L4,13.863a1.144,1.144,0,0,0-.381,1.365,1.237,1.237,0,0,0,1.149.761h2.5V28.182a2.45,2.45,0,0,0,2.561,2.323h17.16a2.45,2.45,0,0,0,2.561-2.323V15.988h2.49a1.238,1.238,0,0,0,1.162-.761A1.14,1.14,0,0,0,32.806,13.866ZM22.724,29.634H14.082V23.682a4.135,4.135,0,0,1,4.321-3.92,4.135,4.135,0,0,1,4.321,3.92ZM32.3,14.928a.284.284,0,0,1-.259.189h-2.98a.459.459,0,0,0-.48.436V28.194a1.532,1.532,0,0,1-1.6,1.452H23.684V23.682A5.054,5.054,0,0,0,18.4,18.892a5.054,5.054,0,0,0-5.281,4.791v5.952h-3.3a1.532,1.532,0,0,1-1.6-1.452V15.553a.459.459,0,0,0-.48-.436H4.767a.284.284,0,0,1-.259-.189.335.335,0,0,1,.1-.4L17.346,4.735a1.725,1.725,0,0,1,2.113,0l12.739,9.8a.329.329,0,0,1,.1.4Z" transform="translate(-3.528 -3.505)" stroke="#000" stroke-width="1"/>
    </g>
  </g>
</svg>
