<svg xmlns="http://www.w3.org/2000/svg" width="27.237" height="28.827" viewBox="0 0 27.237 28.827">
  <g id="noun_monthly_calendar_4353723" data-name="noun_monthly calendar_4353723" transform="translate(-6.4 -4.9)">
    <g id="_76_calendar" data-name="76 calendar" transform="translate(6.5 5)">
      <path id="Path_9773" data-name="Path 9773" d="M30.886,7.121H29.3V5.53a.53.53,0,1,0-1.06,0v1.59H25.055V5.53a.53.53,0,1,0-1.06,0v1.59H20.814V5.53a.53.53,0,0,0-1.06,0v1.59H16.572V5.53a.53.53,0,0,0-1.06,0v1.59H12.331V5.53a.53.53,0,1,0-1.06,0v1.59H9.681A2.651,2.651,0,0,0,7.03,9.771v7.422a.53.53,0,1,0,1.06,0V12.422H32.476V30.976a1.59,1.59,0,0,1-1.59,1.59H9.681a1.59,1.59,0,0,1-1.59-1.59V26.6a.53.53,0,1,0-1.06,0v4.374a2.651,2.651,0,0,0,2.651,2.651H30.886a2.651,2.651,0,0,0,2.651-2.651V9.771A2.651,2.651,0,0,0,30.886,7.121ZM8.09,11.362V9.771a1.59,1.59,0,0,1,1.59-1.59H30.886a1.59,1.59,0,0,1,1.59,1.59v1.59ZM7.56,24.615a1.06,1.06,0,1,1,1.06-1.06A1.06,1.06,0,0,1,7.56,24.615ZM6.5,20.374a1.06,1.06,0,1,1,1.06,1.06A1.06,1.06,0,0,1,6.5,20.374Zm10.072-5.3v.53h7.422v-.53a.53.53,0,1,1,1.06,0v.53h4.771a.53.53,0,0,1,0,1.06H25.055V28.856a.53.53,0,1,1-1.06,0V16.663H16.572V28.856a.53.53,0,0,1-1.06,0V16.663H10.741a.53.53,0,0,1,0-1.06h4.771v-.53a.53.53,0,1,1,1.06,0Zm-6.362,4.241a.53.53,0,0,1,.53-.53h2.121a.53.53,0,1,1,0,1.06H10.741A.53.53,0,0,1,10.211,19.314Zm0,4.241a.53.53,0,0,1,.53-.53h2.121a.53.53,0,0,1,0,1.06H10.741A.53.53,0,0,1,10.211,23.555Zm0,4.241a.53.53,0,0,1,.53-.53h2.121a.53.53,0,0,1,0,1.06H10.741A.53.53,0,0,1,10.211,27.8Zm11.663-8.482a.53.53,0,0,1-.53.53H19.223a.53.53,0,1,1,0-1.06h2.121A.53.53,0,0,1,21.874,19.314Zm0,4.241a.53.53,0,0,1-.53.53H19.223a.53.53,0,1,1,0-1.06h2.121A.53.53,0,0,1,21.874,23.555Zm0,4.241a.53.53,0,0,1-.53.53H19.223a.53.53,0,1,1,0-1.06h2.121A.53.53,0,0,1,21.874,27.8Zm8.482-8.482a.53.53,0,0,1-.53.53H27.705a.53.53,0,0,1,0-1.06h2.121A.53.53,0,0,1,30.356,19.314Zm0,4.241a.53.53,0,0,1-.53.53H27.705a.53.53,0,0,1,0-1.06h2.121A.53.53,0,0,1,30.356,23.555Zm0,4.241a.53.53,0,0,1-.53.53H27.705a.53.53,0,0,1,0-1.06h2.121A.53.53,0,0,1,30.356,27.8Z" transform="translate(-6.5 -5)" stroke="#191919" stroke-width="0.2"/>
    </g>
  </g>
</svg>
