<svg xmlns="http://www.w3.org/2000/svg" width="27.597" height="28.417" viewBox="0 0 27.597 28.417">
  <g id="noun_profile_3053549" transform="translate(-34.036 -1249.5)">
    <g id="Group_3042" data-name="Group 3042" transform="translate(34.536 1250)">
      <path id="Path_9768" data-name="Path 9768" d="M3210.565,1250a6.563,6.563,0,1,1-6.565,6.565A6.57,6.57,0,0,1,3210.565,1250Zm0,.771a5.792,5.792,0,1,0,5.794,5.794A5.79,5.79,0,0,0,3210.565,1250.771Z" transform="translate(-3197.267 -1250)" stroke="#191919" stroke-width="1"/>
      <path id="Path_9769" data-name="Path 9769" d="M1375.3,5006a13.3,13.3,0,0,1,13.3,13.3.386.386,0,0,1-.387.388h-25.822a.388.388,0,0,1-.387-.4A13.3,13.3,0,0,1,1375.3,5006Zm6.09,7.852a.385.385,0,0,1,.643-.424,13.113,13.113,0,0,1,1.974,5.487h3.813a12.526,12.526,0,0,0-25.04,0h3.813a13.115,13.115,0,0,1,1.974-5.487.385.385,0,0,1,.643.424,12.308,12.308,0,0,0-1.842,5.063h15.865A12.312,12.312,0,0,0,1381.389,5013.852Z" transform="translate(-1362 -4992.27)" stroke="#191919" stroke-width="1"/>
    </g>
  </g>
</svg>
