<svg xmlns="http://www.w3.org/2000/svg" width="28.827" height="29.814" viewBox="0 0 28.827 29.814">
  <g id="noun_Project_3477899" transform="translate(-2.9 -1.9)">
    <path id="Path_9770" data-name="Path 9770" d="M31.2,21.748l-1.792-.256a6.36,6.36,0,0,0-.585-1.409l1.086-1.45a.494.494,0,0,0-.045-.645l-1.4-1.4a.494.494,0,0,0-.645-.045l-1.45,1.086a6.36,6.36,0,0,0-1.409-.585l-.256-1.792a.494.494,0,0,0-.488-.423H23.73V4.468A2.471,2.471,0,0,0,21.262,2H5.468A2.471,2.471,0,0,0,3,4.468V26.185a2.471,2.471,0,0,0,2.468,2.468H16.8l1.2,1.2a.494.494,0,0,0,.645.045l1.45-1.086A6.36,6.36,0,0,0,21.5,29.4l.256,1.792a.494.494,0,0,0,.489.423h1.974a.494.494,0,0,0,.489-.424l.256-1.792a6.36,6.36,0,0,0,1.409-.585l1.45,1.086a.494.494,0,0,0,.645-.045l1.4-1.4a.494.494,0,0,0,.045-.645l-1.086-1.45a6.36,6.36,0,0,0,.585-1.409L31.2,24.7a.494.494,0,0,0,.423-.488V22.236a.494.494,0,0,0-.424-.489ZM19.781,2.987V6.238L19.143,5.6a.494.494,0,0,0-.7,0l-.638.638V2.987ZM3.987,26.185V4.468A1.481,1.481,0,0,1,5.468,2.987H16.82V7.429a.494.494,0,0,0,.843.349l1.132-1.132,1.132,1.132a.494.494,0,0,0,.349.145.487.487,0,0,0,.189-.038.494.494,0,0,0,.3-.456V2.987h.494a1.481,1.481,0,0,1,1.481,1.481V14.833h-.494a.494.494,0,0,0-.489.424L21.5,17.048a6.36,6.36,0,0,0-1.409.585l-1.45-1.086a.494.494,0,0,0-.645.045l-1.4,1.4a.494.494,0,0,0-.045.645l1.086,1.45a6.36,6.36,0,0,0-.585,1.409l-1.792.256a.494.494,0,0,0-.423.488v1.974a.494.494,0,0,0,.424.489l1.792.256a6.36,6.36,0,0,0,.585,1.409l-.974,1.3H5.468A1.481,1.481,0,0,1,3.987,26.185Zm26.653-2.4-1.7.242a.494.494,0,0,0-.412.382,5.368,5.368,0,0,1-.716,1.725.494.494,0,0,0,.022.56l1.029,1.373-.79.79L26.7,27.824a.494.494,0,0,0-.56-.022,5.368,5.368,0,0,1-1.725.716.494.494,0,0,0-.382.412l-.242,1.7H22.677l-.242-1.7a.494.494,0,0,0-.382-.412,5.368,5.368,0,0,1-1.725-.716.494.494,0,0,0-.56.022L18.4,28.853l-.79-.79,1.029-1.373a.494.494,0,0,0,.022-.56,5.368,5.368,0,0,1-.716-1.725.494.494,0,0,0-.412-.382l-1.7-.242V22.664l1.7-.242a.494.494,0,0,0,.412-.382,5.368,5.368,0,0,1,.716-1.725.494.494,0,0,0-.022-.56l-1.029-1.373.79-.79,1.373,1.029a.494.494,0,0,0,.56.022,5.368,5.368,0,0,1,1.725-.716.494.494,0,0,0,.382-.412l.242-1.7H23.8l.242,1.7a.494.494,0,0,0,.382.412,5.368,5.368,0,0,1,1.725.716.494.494,0,0,0,.56-.022l1.373-1.029.79.79-1.029,1.373a.494.494,0,0,0-.022.56,5.368,5.368,0,0,1,.716,1.725.494.494,0,0,0,.412.382l1.7.242Z" transform="translate(0)" stroke="#191919" stroke-width="0.2"/>
    <path id="Path_9771" data-name="Path 9771" d="M39.949,37A3.949,3.949,0,1,0,43.9,40.949,3.949,3.949,0,0,0,39.949,37Zm0,6.91a2.961,2.961,0,1,1,2.961-2.961,2.961,2.961,0,0,1-2.961,2.961Z" transform="translate(-16.712 -17.725)" stroke="#191919" stroke-width="0.2"/>
    <rect id="Rectangle_924" data-name="Rectangle 924" width="2.457" height="1.229" transform="translate(5.457 4.457)" stroke="#191919" stroke-width="0.2"/>
    <rect id="Rectangle_925" data-name="Rectangle 925" width="4.915" height="1.229" transform="translate(9.143 4.457)" stroke="#191919" stroke-width="0.2"/>
    <rect id="Rectangle_926" data-name="Rectangle 926" width="8.601" height="1.229" transform="translate(5.457 6.915)" stroke="#191919" stroke-width="0.2"/>
    <rect id="Rectangle_927" data-name="Rectangle 927" width="14.744" height="1.229" transform="translate(5.457 10.601)" stroke="#191919" stroke-width="0.2"/>
    <rect id="Rectangle_928" data-name="Rectangle 928" width="11.058" transform="translate(5.457 14.287)" stroke="#191919" stroke-width="0.2"/>
    <rect id="Rectangle_929" data-name="Rectangle 929" width="2.457" transform="translate(17.744 14.287)" stroke="#191919" stroke-width="0.2"/>
    <rect id="Rectangle_930" data-name="Rectangle 930" width="9.83" height="1.229" transform="translate(5.457 16.744)" stroke="#191919" stroke-width="0.2"/>
    <rect id="Rectangle_931" data-name="Rectangle 931" width="4.915" height="1.229" transform="translate(5.457 20.43)" stroke="#191919" stroke-width="0.2"/>
    <rect id="Rectangle_932" data-name="Rectangle 932" width="4.915" height="1.229" transform="translate(5.457 22.888)" stroke="#191919" stroke-width="0.2"/>
  </g>
</svg>
