<svg xmlns="http://www.w3.org/2000/svg" width="28" height="28" viewBox="0 0 28 28">
  <g id="noun_setting_4366030" transform="translate(-15.5 -15.5)">
    <g id="Group_3041" data-name="Group 3041" transform="translate(16 16)">
      <path id="Path_9766" data-name="Path 9766" d="M19.891,32.676a14.477,14.477,0,0,0,.556,1.39l-2.462,2.462v.556l3.931,3.931h.556l2.462-2.462a8.457,8.457,0,0,0,1.39.556V42.6l.4.4h5.559l.4-.4V39.109a14.476,14.476,0,0,0,1.39-.556l2.462,2.462h.556l3.931-3.931v-.556l-2.462-2.462a8.456,8.456,0,0,0,.556-1.39H42.6l.4-.4V26.721l-.4-.4H39.109a14.476,14.476,0,0,0-.556-1.39l2.462-2.462v-.556l-3.931-3.931h-.556l-2.462,2.462a8.457,8.457,0,0,0-1.39-.556V16.4l-.4-.4H26.721l-.4.4v3.494a14.477,14.477,0,0,0-1.39.556l-2.462-2.462h-.556l-3.931,3.931v.556l2.462,2.462a8.457,8.457,0,0,0-.556,1.39H16.4l-.4.4v5.559l.4.4Zm-3.1-5.559h3.375l.4-.278a11.975,11.975,0,0,1,.715-1.787l-.079-.476-2.382-2.382,3.375-3.375L24.576,21.2l.476.079a7.009,7.009,0,0,1,1.787-.715l.278-.4V16.794h4.765v3.375l.278.4a11.975,11.975,0,0,1,1.787.715l.476-.079,2.382-2.382,3.375,3.375L37.8,24.576l-.079.476a7.009,7.009,0,0,1,.715,1.787l.4.278h3.375v4.765H38.831l-.4.278a11.974,11.974,0,0,1-.715,1.787l.079.476,2.382,2.382-3.375,3.375L34.424,37.8l-.476-.079a7.009,7.009,0,0,1-1.787.715l-.278.4v3.375H27.118V38.831l-.278-.4a11.974,11.974,0,0,1-1.787-.715l-.476.079-2.382,2.382-3.375-3.375L21.2,34.424l.079-.476a7.009,7.009,0,0,1-.715-1.787l-.4-.278H16.794Z" transform="translate(-16 -16)" stroke="#191919" stroke-width="1"/>
      <path id="Path_9767" data-name="Path 9767" d="M41.86,47.221a5.36,5.36,0,1,0-5.36-5.36A5.389,5.389,0,0,0,41.86,47.221Zm0-9.926a4.566,4.566,0,1,1-4.566,4.566A4.592,4.592,0,0,1,41.86,37.294Z" transform="translate(-28.36 -28.36)" stroke="#191919" stroke-width="1"/>
    </g>
  </g>
</svg>
