<svg xmlns="http://www.w3.org/2000/svg" width="30.366" height="27.667" viewBox="0 0 30.366 27.667">
  <g id="noun_Suitcase_4228556" transform="translate(-16.5 17.99)">
    <g id="_63_Suitcase_Bag_Briefcase_Portfolio_Travel" data-name="63 Suitcase, Bag, Briefcase, Portfolio, Travel" transform="translate(17 -17.49)">
      <path id="Path_9757" data-name="Path 9757" d="M29.166,9.56h-4.9V7.368A1.858,1.858,0,0,0,22.407,5.51H12.964A1.858,1.858,0,0,0,11.1,7.368V9.56H6.21A3.21,3.21,0,0,0,3,12.765v8.1a.506.506,0,0,0,.506.506h.851v7.595a3.21,3.21,0,0,0,3.2,3.21H27.809a3.21,3.21,0,0,0,3.2-3.21V21.373h.846a.506.506,0,0,0,.506-.506v-8.1a3.21,3.21,0,0,0-3.2-3.2ZM12.113,7.368a.846.846,0,0,1,.846-.846h9.453a.846.846,0,0,1,.84.846V9.56H12.113ZM31.353,20.36H22.422v1.013h7.595v7.595a2.2,2.2,0,0,1-2.207,2.2H7.557a2.2,2.2,0,0,1-2.192-2.2V21.373h7.595V20.36H4.013V12.765A2.192,2.192,0,0,1,6.2,10.573H29.166a2.192,2.192,0,0,1,2.187,2.192ZM19.04,16.988h-2.7a1.853,1.853,0,0,0-1.853,1.853v4.05a1.858,1.858,0,0,0,1.853,1.858h2.7a1.858,1.858,0,0,0,1.853-1.858v-4.05a1.853,1.853,0,0,0-1.853-1.853Zm.84,5.9a.846.846,0,0,1-.84.846h-2.7a.84.84,0,0,1-.84-.846v-4.05a.84.84,0,0,1,.84-.84h2.7a.84.84,0,0,1,.84.84ZM17.015,20.36h1.347v1.013H17.015Z" transform="translate(-3 -5.51)" stroke="#000" stroke-width="1"/>
    </g>
  </g>
</svg>
