<svg xmlns="http://www.w3.org/2000/svg" width="32.525" height="26.433" viewBox="0 0 32.525 26.433">
  <g id="noun_users_1160168" transform="translate(-6 -14.242)">
    <g id="Group_3038" data-name="Group 3038" transform="translate(6 14.242)">
      <path id="Path_9738" data-name="Path 9738" d="M19.3,966.6a7.216,7.216,0,0,0-7.205,7.205,13.06,13.06,0,0,0,1.711,6.279,9.085,9.085,0,0,0,1.165,1.592,2.238,2.238,0,0,1-.137.543c-.067.15-.092.148-.1.152-.661.251-2.607.415-4.446.99s-3.765,1.734-4.27,4.086a.739.739,0,0,0,.227.7,19.907,19.907,0,0,0,26.12,0,.739.739,0,0,0,.242-.583,14.985,14.985,0,0,0,5.677-3.2.739.739,0,0,0,.227-.7,4.684,4.684,0,0,0-3.5-3.36c-1.485-.464-3.052-.6-3.527-.784h0c-.008,0,0,.014-.044-.065a1.178,1.178,0,0,1-.083-.254,7.359,7.359,0,0,0,.938-1.282,10.506,10.506,0,0,0,1.381-5.069,5.881,5.881,0,0,0-9.667-4.5A7.18,7.18,0,0,0,19.3,966.6Zm0,1.478a5.719,5.719,0,0,1,5.731,5.727,11.873,11.873,0,0,1-1.511,5.536c-1,1.712-2.375,2.89-4.219,2.89s-3.22-1.177-4.216-2.89a11.878,11.878,0,0,1-1.511-5.536,5.715,5.715,0,0,1,5.727-5.727Zm8.492.373a4.39,4.39,0,0,1,4.4,4.4,9.324,9.324,0,0,1-1.18,4.325,3.783,3.783,0,0,1-3.223,2.222,3.13,3.13,0,0,1-2.216-.928,13.019,13.019,0,0,0,.933-4.67,7.163,7.163,0,0,0-1.486-4.374,4.377,4.377,0,0,1,2.769-.98Zm-2.867,11.406a4.61,4.61,0,0,0,2.867,1.023,4.466,4.466,0,0,0,2.367-.678,1.6,1.6,0,0,0,.8.7h0c.986.374,2.354.421,3.612.814a3.257,3.257,0,0,1,2.376,1.855,13.578,13.578,0,0,1-4.822,2.592,6.241,6.241,0,0,0-3.805-2.807c-1.839-.575-3.784-.739-4.445-.99h0c-.059-.023-.09-.039-.159-.173a1.8,1.8,0,0,1-.14-.46,9.03,9.03,0,0,0,1.223-1.653c.044-.075.086-.151.128-.227Zm-8.711,2.894a5.454,5.454,0,0,0,6.137.025c.015.033.031.065.047.1a1.828,1.828,0,0,0,.95.88h0c1.173.444,2.917.515,4.528,1.018,1.478.462,2.681,1.143,3.156,2.579a18.546,18.546,0,0,1-23.461,0c.473-1.436,1.676-2.116,3.154-2.578,1.611-.5,3.357-.574,4.53-1.019a1.726,1.726,0,0,0,.929-.932c.01-.023.021-.047.03-.07Z" transform="translate(-6 -966.604)" fill-rule="evenodd"/>
    </g>
  </g>
</svg>
